<svg viewBox="0 0 800 500" xmlns="http://www.w3.org/2000/svg">
  <defs>
    <linearGradient id="sky" x1="0" y1="0" x2="0" y2="1">
      <stop offset="0" stop-color="#2b1b4e"/><stop offset="0.65" stop-color="#6b3f8f"/><stop offset="1" stop-color="#e8926b"/>
    </linearGradient>
  </defs>
  <rect width="800" height="500" fill="url(#sky)"/>
  <circle cx="130" cy="90" r="34" fill="#fff3de" opacity="0.95"/>
  <g fill="#ffe9c9" opacity="0.8">
    <circle cx="300" cy="60" r="2"/><circle cx="420" cy="100" r="1.6"/><circle cx="560" cy="55" r="2"/><circle cx="250" cy="140" r="1.4"/>
  </g>
  <!-- wizard's tower -->
  <g fill="#241536">
    <rect x="640" y="180" width="70" height="240"/>
    <path d="M628,180 L722,180 L675,96 Z"/>
    <rect x="626" y="330" width="98" height="14"/>
  </g>
  <rect x="664" y="240" width="22" height="30" rx="8" fill="#ffd76b" opacity="0.95"/>
  <circle cx="675" cy="150" r="4" fill="#c88bff"/>
  <!-- shrinking stone giant -->
  <g fill="#1c1030">
    <path d="M330,420 L338,290 C300,290 285,255 300,225 C260,225 250,175 292,158 C300,110 380,100 402,146 C450,150 456,205 420,222 C440,252 428,288 392,292 L400,420 Z"/>
    <path d="M300,230 C260,240 235,270 230,305 L262,308 C268,280 285,258 308,250 Z"/>
    <path d="M412,228 C452,236 478,264 484,300 L452,304 C446,276 430,256 408,248 Z"/>
  </g>
  <g fill="#b7fdff">
    <circle cx="332" cy="160" r="4"/><circle cx="376" cy="158" r="4"/>
  </g>
  <path d="M330,178 q24,10 48,0" stroke="#b7fdff" stroke-width="2.5" fill="none" stroke-linecap="round" opacity="0.7"/>
  <!-- curse sparkles swirling around giant -->
  <g fill="#c88bff">
    <circle cx="270" cy="200" r="3"/><circle cx="455" cy="190" r="3"/><circle cx="300" cy="330" r="2.6"/><circle cx="440" cy="340" r="2.6"/><circle cx="360" cy="90" r="3"/>
  </g>
  <path d="M255,260 q-14,-40 30,-70" stroke="#c88bff" stroke-width="2" fill="none" opacity="0.7" stroke-dasharray="4 6"/>
  <path d="M470,250 q18,-44 -26,-76" stroke="#c88bff" stroke-width="2" fill="none" opacity="0.7" stroke-dasharray="4 6"/>
  <!-- ground -->
  <path d="M0,428 Q120,412 260,426 T520,424 T800,430 L800,500 L0,500 Z" fill="#170d29"/>
  <!-- Mr 6 on galloping horse -->
  <g transform="translate(120,420)" fill="#170d29">
    <path d="M-40,-18 C-52,-34 -40,-52 -18,-50 L28,-48 C52,-50 62,-34 54,-18 L44,-16 L52,6 L40,6 L30,-10 L-14,-10 L-30,8 L-42,6 L-32,-14 Z"/>
    <path d="M28,-48 C34,-66 50,-72 62,-64 L70,-54 L58,-50 L64,-42 L46,-40 Z"/>
    <path d="M-40,-18 C-56,-14 -64,-2 -60,10 L-50,4 C-52,-4 -48,-12 -38,-14 Z"/>
  </g>
  <g transform="translate(122,376)">
    <path d="M-6,-30 Q-24,-16 -22,6 L-4,2 Z" fill="#3b1d5e"/>
    <path d="M-8,-32 Q0,-38 8,-32 L6,-2 L-6,-2 Z" fill="#1c1633"/>
    <circle cx="0" cy="-40" r="8" fill="#1c1633"/>
    <path d="M0,-48 Q9,-60 3,-68" stroke="#e05a7a" stroke-width="3" fill="none" stroke-linecap="round"/>
    <line x1="6" y1="-26" x2="30" y2="-44" stroke="#ffe9a8" stroke-width="3.5" stroke-linecap="round"/>
    <path d="M-18,-24 q-8,3 -8,11 q0,9 8,12 q8,-3 8,-12 q0,-8 -8,-11 Z" fill="#241b40" stroke="#8b6ec4" stroke-width="1.6"/>
    <text x="-18" y="-7" text-anchor="middle" font-size="12" font-family="Georgia, serif" font-weight="bold" fill="#ffd76b">6</text>
  </g>
</svg>
